<svg xmlns="http://www.w3.org/2000/svg" viewBox="0 0 1200 675" role="img" aria-labelledby="title desc">
  <title id="title">Data-centre switch concentration</title><desc id="desc">Many data-centre network paths converge on one switch vendor while a smaller alternative path remains.</desc>
  <rect width="1200" height="675" fill="#071827"/><g fill="#17324a" stroke="#5bd5ff" stroke-width="4"><rect x="70" y="80" width="220" height="95" rx="16"/><rect x="70" y="290" width="220" height="95" rx="16"/><rect x="70" y="500" width="220" height="95" rx="16"/></g>
  <g stroke="#5bd5ff" stroke-width="8" fill="none"><path d="M290 128C420 128 420 337 540 337"/><path d="M290 337h250"/><path d="M290 548c130 0 130-211 250-211"/></g><rect x="540" y="225" width="330" height="225" rx="28" fill="#193c59" stroke="#ffca61" stroke-width="6"/><g fill="#ffca61"><circle cx="605" cy="295" r="12"/><circle cx="655" cy="295" r="12"/><circle cx="705" cy="295" r="12"/><circle cx="755" cy="295" r="12"/><circle cx="805" cy="295" r="12"/></g><text x="705" y="380" text-anchor="middle" fill="#eef8ff" font-family="system-ui" font-size="38" font-weight="700">90%?</text>
  <path d="M870 337h145" stroke="#ffca61" stroke-width="9"/><rect x="1015" y="275" width="110" height="125" rx="18" fill="#17324a" stroke="#54e5ac" stroke-width="5"/><text x="1070" y="335" text-anchor="middle" fill="#54e5ac" font-family="system-ui" font-size="19" font-weight="700">ALT</text><text x="600" y="580" text-anchor="middle" fill="#eef8ff" font-family="system-ui" font-size="32" font-weight="700">INVENTORY • INTEROPERABILITY • EXIT PATH</text>
</svg>
