<svg xmlns="http://www.w3.org/2000/svg" viewBox="0 0 1200 675" role="img" aria-labelledby="title desc">
  <title id="title">Policy-controlled access to AI processors</title><desc id="desc">AI workloads wait at a policy gateway leading to workstation-class processors.</desc>
  <defs><linearGradient id="bg" x2="1" y2="1"><stop stop-color="#071a2e"/><stop offset="1" stop-color="#102f45"/></linearGradient></defs><rect width="1200" height="675" fill="url(#bg)"/>
  <g fill="#25d0b1"><circle cx="120" cy="225" r="14"/><circle cx="120" cy="337" r="14"/><circle cx="120" cy="449" r="14"/></g><g stroke="#25d0b1" stroke-width="8"><path d="M135 225h290M135 337h290M135 449h290"/></g><rect x="425" y="125" width="190" height="425" rx="24" fill="#0c2136" stroke="#ffd56a" stroke-width="6"/><text x="476" y="250" fill="#ffe8a8" font-family="system-ui" font-size="29" font-weight="700">POLICY</text><text x="466" y="295" fill="#ffe8a8" font-family="system-ui" font-size="29" font-weight="700">GATEWAY</text><circle cx="520" cy="385" r="50" fill="#ffd56a"/><path d="M520 350v70M485 385h70" stroke="#0c2136" stroke-width="10"/>
  <path d="M615 337h145" stroke="#ffd56a" stroke-width="10"/><path d="m720 292 48 45-48 45" fill="none" stroke="#ffd56a" stroke-width="10"/><rect x="790" y="175" width="280" height="330" rx="30" fill="#0c2136" stroke="#5ae6ce" stroke-width="6"/><g stroke="#5ae6ce" stroke-width="6"><path d="M835 235h190v210H835z"/><path d="M865 265h130v150H865z"/></g><text x="823" y="555" fill="#d7fff8" font-family="system-ui" font-size="27" font-weight="700">RTX PRO 5500</text>
</svg>
