<svg xmlns="http://www.w3.org/2000/svg" viewBox="0 0 1200 675" role="img" aria-labelledby="title desc">
  <title id="title">Citrix NetScaler zero-day response</title><desc id="desc">Malicious traffic reaches a gateway while evidence is preserved and a fixed build is prepared.</desc>
  <defs><linearGradient id="bg" x2="1" y2="1"><stop stop-color="#071a2e"/><stop offset="1" stop-color="#102f45"/></linearGradient><filter id="g"><feGaussianBlur stdDeviation="7" result="b"/><feMerge><feMergeNode in="b"/><feMergeNode in="SourceGraphic"/></feMerge></filter></defs>
  <rect width="1200" height="675" fill="url(#bg)"/><g stroke="#25d0b1" opacity=".18"><path d="M80 120h1040M80 337h1040M80 555h1040"/><path d="M200 70v535M600 70v535M1000 70v535"/></g>
  <g filter="url(#g)" fill="#ff5b66"><circle cx="135" cy="210" r="14"/><circle cx="170" cy="290" r="14"/><circle cx="135" cy="370" r="14"/><circle cx="170" cy="450" r="14"/></g><path d="M210 337h170" stroke="#ff6d77" stroke-width="13"/><path d="m345 292 48 45-48 45" fill="none" stroke="#ff6d77" stroke-width="13"/>
  <path d="M440 145h320v385H440z" fill="#0c2136" stroke="#ff8a92" stroke-width="6"/><path d="M600 205c82 0 118 38 118 38v88c0 103-118 145-118 145s-118-42-118-145v-88s36-38 118-38z" fill="#142a3e" stroke="#fff" stroke-width="6"/><text x="515" y="315" fill="#fff" font-family="system-ui" font-size="31" font-weight="750">NETSCALER</text><text x="524" y="365" fill="#ff9ba2" font-family="system-ui" font-size="27">2 ZERO-DAYS</text>
  <path d="M785 265h270v190H785z" rx="24" fill="#0c2136" stroke="#5ae6ce" stroke-width="5"/><text x="835" y="335" fill="#d7fff8" font-family="system-ui" font-size="31" font-weight="700">PRESERVE</text><text x="826" y="378" fill="#5ae6ce" font-family="system-ui" font-size="26">EVIDENCE</text><text x="817" y="425" fill="#5ae6ce" font-family="system-ui" font-size="24">PATCH + HUNT</text>
</svg>
