<svg xmlns="http://www.w3.org/2000/svg" width="1200" height="675" viewBox="0 0 1200 675" role="img" aria-labelledby="title desc">
  <title id="title">Fragmented EU cyber incident sharing</title><desc id="desc">Several incident alerts fail to reach a shared European cybersecurity response network.</desc>
  <defs><linearGradient id="bg"><stop stop-color="#091a3a"/><stop offset="1" stop-color="#153d70"/></linearGradient></defs><rect width="1200" height="675" fill="url(#bg)"/>
  <circle cx="600" cy="300" r="125" fill="#122b55" stroke="#7eb8ff" stroke-width="6"/><path d="M600 202l78 30v60c0 58-33 99-78 120-45-21-78-62-78-120v-60z" fill="#183d70" stroke="#ffd45c" stroke-width="5"/><path d="M600 252v77M600 360v4" stroke="#ffd45c" stroke-width="14" stroke-linecap="round"/>
  <g fill="#244f84" stroke="#9ac8ff" stroke-width="5"><rect x="80" y="120" width="230" height="110" rx="18"/><rect x="80" y="380" width="230" height="110" rx="18"/><rect x="890" y="120" width="230" height="110" rx="18"/><rect x="890" y="380" width="230" height="110" rx="18"/></g>
  <g stroke="#ff8590" stroke-width="10" stroke-dasharray="18 14"><path d="M310 175l180 80"/><path d="M310 435l180-80"/><path d="M890 175l-180 80"/><path d="M890 435l-180-80"/></g><g stroke="#fff" stroke-width="9" stroke-linecap="round"><path d="M375 190l35 35M410 190l-35 35"/><path d="M375 400l35 35M410 400l-35 35"/><path d="M790 190l35 35M825 190l-35 35"/><path d="M790 400l35 35M825 400l-35 35"/></g>
  <text x="118" y="187" fill="#fff" font-family="system-ui,sans-serif" font-size="28" font-weight="700">INCIDENT</text><text x="118" y="447" fill="#fff" font-family="system-ui,sans-serif" font-size="28" font-weight="700">INCIDENT</text><text x="928" y="187" fill="#fff" font-family="system-ui,sans-serif" font-size="28" font-weight="700">INCIDENT</text><text x="928" y="447" fill="#fff" font-family="system-ui,sans-serif" font-size="28" font-weight="700">INCIDENT</text>
  <text x="90" y="590" fill="#fff" font-family="system-ui,sans-serif" font-size="43" font-weight="800">TIMELY SHARING IS A SECURITY CONTROL</text>
</svg>
