<svg xmlns="http://www.w3.org/2000/svg" viewBox="0 0 1200 675" role="img" aria-labelledby="title desc"><title id="title">AMD Helios AI racks on an HPE fabric</title><desc id="desc">AMD Helios racks connect through a resilient HPE data-centre network fabric in a cloud region.</desc><defs><linearGradient id="bg" x2="1" y2="1"><stop stop-color="#06172b"/><stop offset="1" stop-color="#183c50"/></linearGradient></defs><rect width="1200" height="675" fill="url(#bg)"/><g fill="#112b43" stroke="#8e87ff" stroke-width="7"><rect x="90" y="120" width="230" height="410" rx="20"/><rect x="365" y="120" width="230" height="410" rx="20"/><rect x="640" y="120" width="230" height="410" rx="20"/></g><g fill="#1c4058"><rect x="125" y="175" width="160" height="55" rx="8"/><rect x="125" y="255" width="160" height="55" rx="8"/><rect x="125" y="335" width="160" height="55" rx="8"/><rect x="400" y="175" width="160" height="55" rx="8"/><rect x="400" y="255" width="160" height="55" rx="8"/><rect x="400" y="335" width="160" height="55" rx="8"/><rect x="675" y="175" width="160" height="55" rx="8"/><rect x="675" y="255" width="160" height="55" rx="8"/><rect x="675" y="335" width="160" height="55" rx="8"/></g><g fill="#58e1cc"><circle cx="150" cy="202" r="9"/><circle cx="425" cy="202" r="9"/><circle cx="700" cy="202" r="9"/></g><path d="M205 530v65h620v-65M480 530v65M755 530v65" fill="none" stroke="#59e2cd" stroke-width="11"/><rect x="900" y="210" width="230" height="230" rx="35" fill="#33233a" stroke="#ffcf6b" stroke-width="8"/><path d="M955 270h120v110H955z" fill="none" stroke="#fff" stroke-width="9"/><path d="M930 325h25M1075 325h25M1015 245v25M1015 380v25" stroke="#fff" stroke-width="9"/><text x="945" y="475" fill="#fff0bc" font-family="system-ui" font-size="27" font-weight="900">FABRIC</text><text x="92" y="580" fill="#d8fff8" font-family="system-ui" font-size="27" font-weight="800">HELIOS AI RACKS</text></svg>
