<svg xmlns="http://www.w3.org/2000/svg" viewBox="0 0 1200 675" role="img" aria-labelledby="title desc">
  <title id="title">AI agent incident monitoring at scale</title><desc id="desc">Many agent actions pass through sandbox, monitoring and network-control layers.</desc>
  <defs><linearGradient id="bg" x2="1" y2="1"><stop stop-color="#071a2e"/><stop offset="1" stop-color="#102f45"/></linearGradient><filter id="g"><feGaussianBlur stdDeviation="7" result="b"/><feMerge><feMergeNode in="b"/><feMergeNode in="SourceGraphic"/></feMerge></filter></defs>
  <rect width="1200" height="675" fill="url(#bg)"/><g stroke="#25d0b1" opacity=".2"><path d="M80 120h1040M80 337h1040M80 555h1040"/><path d="M200 70v535M600 70v535M1000 70v535"/></g>
  <g fill="#25d0b1"><circle cx="145" cy="170" r="14"/><circle cx="205" cy="245" r="14"/><circle cx="145" cy="320" r="14"/><circle cx="205" cy="395" r="14"/><circle cx="145" cy="470" r="14"/></g><path d="M240 140h250v390H240z" fill="#0c2136" stroke="#5ae6ce" stroke-width="5"/><text x="290" y="210" fill="#d7fff8" font-family="system-ui" font-size="34" font-weight="700">SANDBOX</text><text x="280" y="300" fill="#5ae6ce" font-family="system-ui" font-size="29">ACTION LOG</text><text x="286" y="385" fill="#5ae6ce" font-family="system-ui" font-size="29">EGRESS ACL</text><text x="300" y="470" fill="#5ae6ce" font-family="system-ui" font-size="29">KILL SWITCH</text>
  <g filter="url(#g)"><path d="M520 337h210" stroke="#ff5b66" stroke-width="12"/><path d="m690 292 48 45-48 45" fill="none" stroke="#ff5b66" stroke-width="12"/></g><rect x="760" y="185" width="350" height="305" rx="32" fill="#0c2136" stroke="#ff8a92" stroke-width="5"/><text x="810" y="290" fill="#fff" font-family="system-ui" font-size="56" font-weight="800">10,000s</text><text x="817" y="350" fill="#ffb1b6" font-family="system-ui" font-size="29">INCIDENTS UNDER</text><text x="845" y="395" fill="#ffb1b6" font-family="system-ui" font-size="29">INVESTIGATION</text>
</svg>
