<svg xmlns="http://www.w3.org/2000/svg" width="1200" height="630" viewBox="0 0 1200 630" role="img" aria-labelledby="title desc">
  <title id="title">Disruption of infrastructure-scanning domains</title><desc id="desc">Seven malicious domains are disconnected from automated scanners targeting critical infrastructure networks.</desc>
  <defs><linearGradient id="bg" x1="0" y1="0" x2="1" y2="1"><stop stop-color="#08111e"/><stop offset="1" stop-color="#182a46"/></linearGradient></defs><rect width="1200" height="630" rx="32" fill="url(#bg)"/>
  <g fill="#12243c" stroke="#60a5fa" stroke-width="3"><rect x="720" y="130" width="330" height="95" rx="18"/><rect x="720" y="268" width="330" height="95" rx="18"/><rect x="720" y="406" width="330" height="95" rx="18"/></g><g fill="#bfdbfe"><circle cx="770" cy="177" r="16"/><circle cx="770" cy="315" r="16"/><circle cx="770" cy="453" r="16"/></g><g stroke="#60a5fa" stroke-width="12" stroke-linecap="round"><path d="M815 165h180M815 303h180M815 441h180"/><path d="M815 190h110M815 328h110M815 466h110" opacity=".45"/></g>
  <g fill="#32172a" stroke="#f472b6" stroke-width="3"><circle cx="190" cy="160" r="52"/><circle cx="340" cy="138" r="52"/><circle cx="485" cy="180" r="52"/><circle cx="220" cy="330" r="52"/><circle cx="390" cy="325" r="52"/><circle cx="175" cy="490" r="52"/><circle cx="360" cy="490" r="52"/></g><g fill="#fbcfe8" font-family="monospace" font-size="22" text-anchor="middle"><text x="190" y="168">D1</text><text x="340" y="146">D2</text><text x="485" y="188">D3</text><text x="220" y="338">D4</text><text x="390" y="333">D5</text><text x="175" y="498">D6</text><text x="360" y="498">D7</text></g>
  <g stroke="#fb7185" stroke-width="8" stroke-dasharray="16 14" opacity=".75"><path d="M240 168 682 202"/><path d="M437 157 682 275"/><path d="M272 330 682 330"/><path d="M430 325 682 385"/><path d="M225 482 682 435"/><path d="M412 478 682 475"/></g><rect x="635" y="95" width="62" height="430" rx="25" fill="#641c2c" stroke="#fb7185" stroke-width="5"/><g stroke="#fecdd3" stroke-width="9"><path d="m646 170 40 40M686 170l-40 40M646 290l40 40M686 290l-40 40M646 410l40 40M686 410l-40 40"/></g>
  <text x="72" y="80" fill="#e0f2fe" font-family="Arial, sans-serif" font-size="34" font-weight="700">SEVEN DOMAINS SEIZED</text><text x="720" y="555" fill="#93c5fd" font-family="Arial, sans-serif" font-size="23">Critical infrastructure boundary</text>
</svg>
