<svg xmlns="http://www.w3.org/2000/svg" width="1200" height="630" viewBox="0 0 1200 630" role="img" aria-labelledby="title desc">
  <title id="title">Mixed-vendor AI token fabric</title><desc id="desc">Different types of AI accelerators connect through an observable data-centre network fabric.</desc>
  <defs><linearGradient id="bg" x1="0" y1="0" x2="1" y2="1"><stop stop-color="#091522"/><stop offset="1" stop-color="#172f45"/></linearGradient><linearGradient id="fabric" x1="0" y1="0" x2="1" y2="0"><stop stop-color="#22d3ee"/><stop offset=".5" stop-color="#818cf8"/><stop offset="1" stop-color="#f472b6"/></linearGradient></defs><rect width="1200" height="630" rx="32" fill="url(#bg)"/>
  <rect x="120" y="265" width="960" height="100" rx="30" fill="#0b2136" stroke="url(#fabric)" stroke-width="7"/><path d="M180 315h840" stroke="url(#fabric)" stroke-width="18" stroke-linecap="round"/><g fill="#e0f2fe"><circle cx="250" cy="315" r="15"/><circle cx="425" cy="315" r="15"/><circle cx="600" cy="315" r="15"/><circle cx="775" cy="315" r="15"/><circle cx="950" cy="315" r="15"/></g>
  <g stroke-width="4"><g fill="#12395a" stroke="#38bdf8"><rect x="140" y="100" width="220" height="115" rx="22"/><path d="M250 215v50" stroke="#38bdf8"/></g><g fill="#292350" stroke="#a78bfa"><rect x="490" y="100" width="220" height="115" rx="22"/><path d="M600 215v50" stroke="#a78bfa"/></g><g fill="#4a1f45" stroke="#f472b6"><rect x="840" y="100" width="220" height="115" rx="22"/><path d="M950 215v50" stroke="#f472b6"/></g></g><g fill="#eef2ff" font-family="Arial" font-size="28" font-weight="700" text-anchor="middle"><text x="250" y="155">ACCELERATOR A</text><text x="600" y="155">ACCELERATOR B</text><text x="950" y="155">ACCELERATOR C</text></g><g fill="#b6c9dc" font-family="Arial" font-size="18" text-anchor="middle"><text x="250" y="187">vendor 1</text><text x="600" y="187">vendor 2</text><text x="950" y="187">vendor 3</text></g>
  <g fill="#0f766e" stroke="#5eead4" stroke-width="4"><rect x="190" y="415" width="250" height="100" rx="20"/><rect x="475" y="415" width="250" height="100" rx="20"/><rect x="760" y="415" width="250" height="100" rx="20"/></g><g fill="#ccfbf1" font-family="Arial" font-size="24" font-weight="700" text-anchor="middle"><text x="315" y="475">THROUGHPUT</text><text x="600" y="475">CONGESTION</text><text x="885" y="475">FAULTS</text></g><text x="72" y="72" fill="#e0f2fe" font-family="Arial" font-size="34" font-weight="700">MIXED ACCELERATORS · ONE OBSERVABLE FABRIC</text>
</svg>
