<svg xmlns="http://www.w3.org/2000/svg" viewBox="0 0 1200 630" role="img" aria-labelledby="title desc">
  <title id="title">AI infrastructure power shortfall</title><desc id="desc">A power gap delays AI racks, optics, memory and network deployment.</desc>
  <rect width="1200" height="630" rx="36" fill="#071827"/><g fill="#12334a" stroke="#71c9e3" stroke-width="5"><rect x="90" y="165" width="255" height="300" rx="22"/><rect x="855" y="165" width="255" height="300" rx="22"/></g>
  <g fill="#7ccde5"><rect x="130" y="210" width="175" height="32" rx="8"/><rect x="130" y="270" width="175" height="32" rx="8"/><rect x="130" y="330" width="175" height="32" rx="8"/><rect x="895" y="210" width="175" height="32" rx="8"/><rect x="895" y="270" width="175" height="32" rx="8"/><rect x="895" y="330" width="175" height="32" rx="8"/></g>
  <path d="M345 315h170" stroke="#63d9c7" stroke-width="18"/><path d="M685 315h170" stroke="#ff6b6b" stroke-width="18" stroke-dasharray="24 18"/><circle cx="600" cy="315" r="105" fill="#2f1f36" stroke="#ff79a8" stroke-width="7"/><path d="m620 215-80 125h68l-28 80 90-140h-72z" fill="#ffd166"/>
  <text x="600" y="115" fill="white" font-family="sans-serif" font-size="52" font-weight="700" text-anchor="middle">32 GW POWER GAP</text><text x="600" y="548" fill="#ccecf6" font-family="sans-serif" font-size="30" text-anchor="middle">CHIPS WAIT FOR POWER • OPTICS • MEMORY • NETWORKS</text>
</svg>
