<svg xmlns="http://www.w3.org/2000/svg" width="1200" height="675" viewBox="0 0 1200 675" role="img" aria-labelledby="title desc">
  <title id="title">Data-centre permitting gates</title><desc id="desc">Original illustration of a planned data centre waiting behind power, water and community approval gates.</desc>
  <defs><linearGradient id="b" x2="1" y2="1"><stop stop-color="#111827"/><stop offset="1" stop-color="#3f1d2e"/></linearGradient></defs><rect width="1200" height="675" fill="url(#b)"/>
  <text x="68" y="88" fill="#fff" font-family="Arial" font-size="43" font-weight="700">CAPACITY NEEDS APPROVAL</text><text x="68" y="132" fill="#fecdd3" font-family="Arial" font-size="22">Power, water and community consent become deployment gates</text>
  <rect x="70" y="205" width="365" height="330" rx="30" fill="#1f2937" stroke="#94a3b8" stroke-width="5"/><g fill="#334155" stroke="#cbd5e1" stroke-width="4"><rect x="125" y="258" width="255" height="62" rx="10"/><rect x="125" y="343" width="255" height="62" rx="10"/><rect x="125" y="428" width="255" height="62" rx="10"/></g><g fill="#22d3ee"><circle cx="350" cy="289" r="8"/><circle cx="350" cy="374" r="8"/><circle cx="350" cy="459" r="8"/></g><text x="133" y="575" fill="#e2e8f0" font-family="Arial" font-size="24" font-weight="700">PLANNED DATA CENTRE</text>
  <path d="M460 365h650" stroke="#fb7185" stroke-width="10" stroke-dasharray="18 12"/><g><rect x="520" y="240" width="155" height="250" rx="24" fill="#4c1d2f" stroke="#fb7185" stroke-width="5"/><rect x="715" y="240" width="155" height="250" rx="24" fill="#4c1d2f" stroke="#fb7185" stroke-width="5"/><rect x="910" y="240" width="155" height="250" rx="24" fill="#4c1d2f" stroke="#fb7185" stroke-width="5"/></g><path d="M575 322l38-72-10 72h32l-55 96 12-75h-32z" fill="#fde047"/><path d="M792 265c-44 55-56 82-56 111a56 56 0 00112 0c0-29-12-56-56-111z" fill="#38bdf8"/><path d="M938 393h98M950 393v-68h74v68M974 355h25" stroke="#fda4af" stroke-width="10" fill="none"/><text x="551" y="455" fill="#fff" font-family="Arial" font-size="20" font-weight="700">POWER</text><text x="753" y="455" fill="#fff" font-family="Arial" font-size="20" font-weight="700">WATER</text><text x="929" y="455" fill="#fff" font-family="Arial" font-size="20" font-weight="700">COMMUNITY</text>
</svg>
