<svg xmlns="http://www.w3.org/2000/svg" width="1200" height="675" viewBox="0 0 1200 675" role="img" aria-labelledby="title desc">
  <title id="title">WaterPlum developer targeting</title><desc id="desc">Original illustration of a fake coding interview delivering malware to a developer workstation and connected company network.</desc>
  <defs><linearGradient id="b" x2="1" y2="1"><stop stop-color="#071a25"/><stop offset="1" stop-color="#134e4a"/></linearGradient></defs><rect width="1200" height="675" fill="url(#b)"/>
  <text x="68" y="86" fill="#fff" font-family="Arial" font-size="43" font-weight="700">FAKE INTERVIEW → REAL COMPROMISE</text><text x="68" y="130" fill="#a7f3d0" font-family="Arial" font-size="22">Malicious projects target developers and their employers</text>
  <rect x="70" y="205" width="315" height="300" rx="28" fill="#102f38" stroke="#2dd4bf" stroke-width="5"/><rect x="117" y="255" width="220" height="135" rx="15" fill="#082f49" stroke="#67e8f9" stroke-width="4"/><text x="148" y="315" fill="#fff" font-family="Arial" font-size="28" font-weight="700">CODING TEST</text><text x="151" y="352" fill="#bae6fd" font-family="monospace" font-size="21">npm install</text><path d="M205 420h45v42h-45zM175 462h105" stroke="#5eead4" stroke-width="8"/><text x="125" y="485" fill="#99f6e4" font-family="Arial" font-size="21" font-weight="700">DEVELOPER DEVICE</text>
  <path d="M390 355h230" stroke="#fb7185" stroke-width="12" stroke-dasharray="17 12"/><path d="m590 330 40 25-40 25" fill="none" stroke="#fb7185" stroke-width="12"/><path d="M492 295l40 70h-80z" fill="#be123c" stroke="#fda4af" stroke-width="4"/><text x="480" y="350" fill="#fff" font-family="Arial" font-size="38" font-weight="700">!</text>
  <rect x="655" y="205" width="475" height="300" rx="28" fill="#102f38" stroke="#f87171" stroke-width="5"/><g fill="#164e63" stroke="#5eead4" stroke-width="4"><rect x="710" y="260" width="120" height="75" rx="12"/><rect x="955" y="260" width="120" height="75" rx="12"/><rect x="833" y="405" width="120" height="75" rx="12"/></g><path d="M830 298h125M770 335l100 70M1015 335l-100 70" stroke="#f87171" stroke-width="8"/><text x="780" y="372" fill="#fff" font-family="Arial" font-size="27" font-weight="700">COMPANY NETWORK</text>
</svg>
